<svg width="74" height="75" viewBox="0 0 74 75" fill="none" xmlns="http://www.w3.org/2000/svg">
<path d="M28 36.1668L36.6441 36.1668L53.6391 71L44.4997 71L28 36.1668Z" fill="#F5A201"/>
<path d="M65.1 60.525C65.1 59.3083 64.8583 58.35 64.375 57.65C63.9083 56.9333 63.2417 56.425 62.375 56.125C61.525 55.825 60.525 55.675 59.375 55.675H56V65.025H59.025C59.825 65.025 60.5833 64.9667 61.3 64.85C62.0333 64.7333 62.6833 64.5167 63.25 64.2C63.8333 63.8833 64.2833 63.4333 64.6 62.85C64.9333 62.25 65.1 61.475 65.1 60.525ZM63.8 46.025C63.8 44.6583 63.3667 43.675 62.5 43.075C61.65 42.4583 60.325 42.15 58.525 42.15H56V50.175H58.775C60.5417 50.175 61.8167 49.85 62.6 49.2C63.4 48.55 63.8 47.4917 63.8 46.025ZM73.55 60.85C73.55 62.85 73.1667 64.5083 72.4 65.825C71.6333 67.1417 70.5833 68.175 69.25 68.925C67.9167 69.675 66.3917 70.2083 64.675 70.525C62.975 70.8417 61.1833 71 59.3 71H47.8V36.35H58.775C60.5583 36.35 62.2417 36.5 63.825 36.8C65.425 37.0833 66.8417 37.5667 68.075 38.25C69.3083 38.9167 70.275 39.825 70.975 40.975C71.6917 42.1083 72.05 43.5167 72.05 45.2C72.05 46.5833 71.7583 47.7833 71.175 48.8C70.5917 49.8 69.8167 50.625 68.85 51.275C67.8833 51.9083 66.8333 52.3667 65.7 52.65C66.9333 52.85 68.15 53.2417 69.35 53.825C70.5667 54.3917 71.5667 55.2417 72.35 56.375C73.15 57.5083 73.55 59 73.55 60.85Z" fill="#FFBA42"/>
<rect width="72" height="4" fill="#F5A201"/>
<rect width="4" height="71" fill="#F5A201"/>
<rect y="67" width="26" height="4" fill="#F5A201"/>
<rect x="68" width="4" height="25" fill="#F5A201"/>
</svg>
